<?xml version="1.0" standalone="no"?>
<!DOCTYPE svg PUBLIC "-//W3C//DTD SVG 20010904//EN"
 "http://www.w3.org/TR/2001/REC-SVG-20010904/DTD/svg10.dtd">
<svg version="1.0" xmlns="http://www.w3.org/2000/svg"
 width="32.000000pt" height="32.000000pt" viewBox="0 0 32.000000 32.000000"
 preserveAspectRatio="xMidYMid meet">

<g transform="translate(0.000000,32.000000) scale(0.100000,-0.100000)"
fill="#000000" stroke="none">
<path d="M16 303 c18 -3 26 -22 51 -116 21 -79 26 -117 20 -128 -15 -24 -1
-49 27 -49 24 0 41 23 30 41 -3 5 15 9 40 9 34 0 44 -3 40 -13 -7 -18 20 -40
43 -35 12 2 18 12 18 28 0 24 -2 25 -80 28 -109 4 -123 22 -18 22 53 0 84 4
90 13 9 11 43 123 43 140 0 4 -58 7 -129 7 l-128 0 -6 30 c-6 25 -11 30 -34
29 -22 -1 -23 -3 -7 -6z m284 -79 c0 -3 -7 -30 -16 -60 l-15 -54 -84 0 -83 0
-11 44 c-6 24 -13 51 -17 60 -5 14 7 16 110 16 64 0 116 -3 116 -6z m-170
-184 c0 -11 -7 -20 -15 -20 -8 0 -15 9 -15 20 0 11 7 20 15 20 8 0 15 -9 15
-20z m146 9 c10 -17 -13 -36 -27 -22 -12 12 -4 33 11 33 5 0 12 -5 16 -11z"/>
</g>
</svg>
