<?xml version="1.0" standalone="no"?>
<!DOCTYPE svg PUBLIC "-//W3C//DTD SVG 20010904//EN"
 "http://www.w3.org/TR/2001/REC-SVG-20010904/DTD/svg10.dtd">
<svg version="1.0" xmlns="http://www.w3.org/2000/svg"
 width="32.000000pt" height="32.000000pt" viewBox="0 0 26.000000 26.000000"
 preserveAspectRatio="xMidYMid meet">

<g transform="translate(0.000000,28.000000) scale(0.100000,-0.100000)"
fill="#000000" stroke="none">
<path d="M76 244 c-36 -37 -37 -101 -1 -137 31 -31 62 -37 106 -22 31 10 37 9
64 -14 l30 -26 -26 30 c-23 27 -24 33 -14 64 15 44 9 75 -22 106 -36 36 -100
35 -137 -1z m129 -9 c54 -53 16 -145 -60 -145 -77 0 -114 89 -59 144 35 35 86
35 119 1z"/>
</g>
</svg>
