<?xml version="1.0" standalone="no"?>
<!DOCTYPE svg PUBLIC "-//W3C//DTD SVG 20010904//EN"
 "http://www.w3.org/TR/2001/REC-SVG-20010904/DTD/svg10.dtd">
<svg version="1.0" xmlns="http://www.w3.org/2000/svg"
 width="32.000000pt" height="32.000000pt" viewBox="0 0 32.000000 32.000000"
 preserveAspectRatio="xMidYMid meet">

<g transform="translate(0.000000,32.000000) scale(0.100000,-0.100000)"
fill="#000000" stroke="none">
<path d="M27 292 c-32 -33 -33 -53 -8 -109 39 -85 160 -183 226 -183 21 0 75
47 75 66 0 6 -16 25 -35 44 -30 29 -38 33 -53 22 -9 -7 -22 -15 -29 -18 -16
-8 -65 28 -82 60 -13 23 -12 28 2 44 10 10 17 23 17 28 0 13 -63 74 -76 74 -6
0 -22 -13 -37 -28z m73 -17 c20 -22 22 -29 12 -43 -7 -9 -15 -22 -18 -29 -13
-27 82 -122 109 -109 7 3 20 11 29 18 14 10 21 8 43 -12 14 -13 25 -28 25 -33
0 -20 -34 -47 -58 -47 -85 0 -222 137 -222 221 0 25 26 59 45 59 6 0 22 -11
35 -25z"/>
</g>
</svg>
